<svg width="222" height="255" viewBox="0 0 222 255" fill="none" xmlns="http://www.w3.org/2000/svg">
<path d="M77.415 140.528L74.7118 141.059L74.0162 143.916L70.9495 144.298L71.1075 147.569L67.6455 148.167L67.44 151.206L64.1993 152.335L63.7883 151.057L66.207 150.193L66.4283 146.988L69.748 146.423L69.5899 143.102L72.9887 142.687L73.6685 139.897L76.1662 139.398L76.2452 137.472L77.5415 137.522L77.415 140.528Z" fill="#FFC359"/>
<path d="M140.901 132.307L144.015 129.152C143.035 123.439 137.929 120.682 134.578 120.3C125.52 119.287 120.904 125.831 118.959 136.326C115.418 155.474 119.876 235.852 119.876 235.852C120.208 233.71 144.806 152.983 144.173 130.813L140.901 132.307Z" fill="#225CA9"/>
<path d="M25.2637 200.479L24.9318 203.086L24.1256 200.081C21.8808 199.333 19.9206 199.084 18.3714 199.45C4.50755 202.754 28.457 222.782 28.457 222.782C28.457 222.782 20.8216 217.75 13.4392 214.562L13.3443 217.202L12.3959 214.23C6.65747 211.872 1.3301 210.776 0.255142 214.18C-0.740776 217.385 1.26687 220.424 4.74468 223.131L8.72835 223.281L6.37292 224.31C14.3877 229.708 27.6508 233.56 32.2194 234.441C27.8405 233.71 17.1383 232.248 10.7992 233.693L11.7951 235.437L9.29745 234.125C7.08429 234.872 5.69317 236.118 5.85125 238.077C6.1358 241.831 21.6279 243.176 21.6279 243.176L78.2213 242.628L78.5374 242.794C78.5216 242.777 43.5064 207.487 25.2637 200.479Z" fill="#225CA9"/>
<path d="M221.776 232.116C220.511 225.971 207.738 224.177 191.456 227.532C197.257 225.456 205.225 220.707 209.351 218.548L206.521 216.654L212.196 216.937C216.828 214.08 219.152 211.29 217.634 208.749C216.496 206.856 214.014 206.076 210.663 206.076L208.892 209.414L209.256 206.126C200.767 206.64 198.854 205.179 187.409 210.045C194.554 206.142 195.597 204.93 196.056 203.369L192.183 201.592H196.72C200.387 197.44 206.205 189.236 203.802 185.466C201.81 182.344 193.068 186.679 187.488 188.921L185.117 194.534L185.591 189.734C167.838 197.855 173.861 191.345 173.861 191.345C173.861 191.345 192.388 151.09 181.481 151.987C177.165 152.352 172.533 155.076 167.98 159.443L167.87 163.445L166.51 160.905C163.191 164.326 159.918 168.444 156.788 172.895C161.041 163.528 164.265 154.312 164.582 147.453L161.341 147.038L164.534 144.696C164.234 141.225 162.922 138.618 160.282 137.223C156.219 135.097 151.967 138.319 147.777 144.696L148.805 150.459L146.197 147.237C131.179 172.945 117.457 236.234 117.457 236.234L116.367 239.672L160.472 241.963C160.456 241.963 224.305 244.521 221.776 232.116Z" fill="#225CA9"/>
<path d="M156.899 218.332H53.4498C49.4978 218.332 46.2887 215.276 46.2887 211.506V207.454C46.2887 203.684 49.4978 200.629 53.4498 200.629H156.899C152.172 205.561 152.077 213.1 156.709 218.116L156.899 218.332Z" fill="#3ED5FC"/>
<path d="M155.46 202.671H103.404C99.8153 202.671 96.9066 205.727 96.9066 209.497C96.9066 213.267 99.8153 216.322 103.404 216.322H155.46C153.026 212.121 153.026 206.84 155.46 202.671Z" fill="#DFF0F4"/>
<path d="M165.736 181.298C165.957 180.883 165.625 180.418 165.087 180.418H69.2105C62.7608 180.418 57.5125 184.952 57.5125 190.548C57.5125 196.145 62.745 200.678 69.2105 200.678H165.103C165.625 200.678 165.973 200.197 165.751 199.798C162.495 193.936 162.495 187.127 165.736 181.298Z" fill="#013D5D"/>
<path d="M165.072 182.593H96.3058C92.2273 182.593 88.9076 186.064 88.9076 190.365V190.947C88.9076 195.231 92.2115 198.719 96.3058 198.719H165.182C162.716 193.554 162.685 187.758 165.072 182.593Z" fill="#DFF0F4"/>
<path d="M116.762 190.714H111.071C109.854 190.714 108.858 191.113 108.858 191.611V191.694H116.762V190.714Z" fill="#FF61A4"/>
<path d="M121.615 192.956C121.615 191.727 120.129 190.731 118.295 190.731H110.992C112.383 190.731 113.505 191.495 113.505 192.425L113.474 216.355L117.505 213.283L121.615 216.355V192.956Z" fill="#FF9AC5"/>
<path d="M199.439 218.299H45.7196C40.9455 218.299 37.0725 222.367 37.0725 227.383V235.022C37.0725 240.037 40.9455 244.106 45.7196 244.106H199.439L199.36 244.023C192.783 236.815 192.815 225.44 199.439 218.299Z" fill="#FF61A4"/>
<path d="M196.72 222.118H114.549C109.775 222.118 105.901 226.187 105.901 231.202C105.901 236.217 109.775 240.286 114.549 240.286H196.72C193.7 234.656 193.7 227.731 196.72 222.118Z" fill="#DFF0F4"/>
<path d="M156.377 231.235H149.706C148.268 231.235 147.114 232.448 147.114 233.959V234.208H156.377V231.235Z" fill="#013D5D"/>
<path d="M149.975 231.252C151.571 231.252 153.943 232.664 155.286 234.407L171.095 255H180.374L165.34 235.42C163.57 233.112 160.44 231.252 158.337 231.252H149.975Z" fill="#3190C1"/>
<path d="M62.4289 10.5114C59.1566 12.8862 60.2948 18.3167 64.2468 19.0474C64.9582 19.1803 65.5905 19.5788 66.049 20.1767L67.614 22.1861C68.0408 22.7342 68.8154 22.8504 69.3687 22.4519L70.6175 21.5551C71.1708 21.1565 71.3447 20.3594 71.0127 19.7449C69.7639 17.4864 69.1474 16.7391 69.4003 15.3275C70.1275 11.1757 65.7012 8.13661 62.4289 10.5114Z" fill="#FFC359"/>
<path d="M68.1831 20.841C68.0092 20.9572 67.7878 20.9074 67.6772 20.7414L64.7052 16.1246L63.1402 15.6928C62.9505 15.643 62.8241 15.4271 62.8873 15.2278C62.9347 15.0285 63.1402 14.8957 63.3299 14.9621L65.1637 15.4603L68.2779 20.3096C68.3886 20.4923 68.3569 20.7247 68.1831 20.841Z" fill="#EEFBFF"/>
<path d="M69.8114 19.9442C69.9853 19.8279 70.0169 19.5788 69.9062 19.4128L66.8394 14.8625L67.0133 13.1685C67.0291 12.9527 66.8868 12.77 66.6971 12.7534C66.4916 12.7368 66.3177 12.8862 66.3019 13.0855L66.0964 15.0617L69.3213 19.8446C69.4162 20.0272 69.6375 20.0604 69.8114 19.9442Z" fill="#EEFBFF"/>
<path d="M65.9857 20.1102C66.0015 20.1268 66.0173 20.1434 66.0331 20.1601L67.5982 22.1695C68.025 22.7175 68.7996 22.8338 69.3529 22.4352L70.6017 21.5384C71.155 21.1399 71.3289 20.3427 70.9969 19.7283C70.4436 18.7152 70.0168 18.0177 69.7323 17.4199L65.9857 20.1102Z" fill="#3190C1"/>
<path d="M193.858 113.409L192.293 111.034H189.543C189.227 111.034 189.053 110.652 189.242 110.403L190.902 108.111L190.049 105.371C189.954 105.055 190.238 104.773 190.539 104.872L193.131 105.819L195.344 104.125C195.597 103.926 195.945 104.125 195.945 104.457L195.882 107.347L198.111 109.041C198.364 109.24 198.301 109.655 198 109.738L195.376 110.569L194.538 113.309C194.443 113.624 194.048 113.674 193.858 113.409Z" fill="white"/>
<path d="M26.3071 122.094L23.6514 122.791L22.7029 125.498C22.5922 125.814 22.197 125.847 22.0231 125.565L20.5688 123.124L17.8339 123.007C17.5178 122.991 17.3597 122.609 17.5652 122.36L19.3199 120.151L18.5769 117.378C18.4979 117.062 18.7824 116.78 19.0828 116.896L21.6279 117.975L23.9201 116.381C24.173 116.198 24.5208 116.414 24.505 116.73L24.3153 119.603L26.4652 121.396C26.6865 121.596 26.6075 122.011 26.3071 122.094Z" fill="white"/>
<path d="M185.938 133.271L184.784 131.527H182.761C182.524 131.527 182.397 131.244 182.54 131.062L183.757 129.384L183.125 127.375C183.046 127.143 183.267 126.927 183.472 127.01L185.369 127.707L186.998 126.462C187.187 126.312 187.44 126.462 187.44 126.711L187.393 128.82L189.021 130.065C189.211 130.215 189.163 130.514 188.942 130.58L187.013 131.195L186.397 133.204C186.365 133.42 186.065 133.47 185.938 133.271Z" fill="white"/>
<path d="M195.139 76.7568L193.384 75.7106L191.566 76.6406C191.361 76.7402 191.124 76.5575 191.171 76.325L191.582 74.2491L190.191 72.7213C190.033 72.5552 190.128 72.2563 190.365 72.2231L192.372 71.9906L193.321 70.1306C193.432 69.9147 193.716 69.9313 193.811 70.1472L194.649 72.0736L196.641 72.439C196.862 72.4888 196.941 72.7711 196.783 72.9372L195.297 74.3654L195.566 76.4579C195.582 76.6904 195.344 76.8731 195.139 76.7568Z" fill="white"/>
<path d="M64.2626 48.6909L62.4762 47.7111L60.6899 48.7075C60.4844 48.8238 60.2473 48.6411 60.2947 48.4086L60.6267 46.3161L59.1723 44.8381C59.0142 44.672 59.0933 44.3731 59.3304 44.3399L61.3222 44.0243L62.2075 42.1145C62.3024 41.8986 62.6027 41.8986 62.6976 42.1145L63.5986 44.0077L65.5905 44.3067C65.8118 44.3399 65.9066 44.6388 65.7485 44.8049L64.31 46.2829L64.6578 48.3754C64.7052 48.6245 64.4681 48.8072 64.2626 48.6909Z" fill="white"/>
<path d="M93.002 13.8162L91.2156 12.8364L89.4293 13.8328C89.2238 13.949 88.9867 13.7664 89.0341 13.5339L89.3661 11.4414L87.9117 9.96336C87.7536 9.79728 87.8327 9.49836 88.0698 9.46514L90.0616 9.14961L90.9469 7.2398C91.0417 7.02391 91.3421 7.02391 91.4369 7.2398L92.338 9.133L94.3298 9.43194C94.5512 9.46515 94.646 9.76408 94.4879 9.93015L93.0494 11.4082L93.3972 13.5007C93.4446 13.7498 93.2075 13.9158 93.002 13.8162Z" fill="white"/>
<path d="M18.5453 88.9464L16.759 87.9666L14.9726 88.963C14.7671 89.0792 14.53 88.8966 14.5774 88.6641L14.9094 86.5716L13.455 85.0935C13.297 84.9275 13.376 84.6285 13.6131 84.5953L15.605 84.2798L16.4902 82.37C16.5851 82.1541 16.8854 82.1541 16.9803 82.37L17.8813 84.2632L19.8732 84.5621C20.0945 84.5953 20.1893 84.8943 20.0313 85.0603L18.5927 86.5383L18.9405 88.6308C18.9879 88.8633 18.7508 89.046 18.5453 88.9464Z" fill="white"/>
<path d="M143.683 58.9707L142.529 57.2269H140.506C140.268 57.2269 140.142 56.9446 140.284 56.7619L141.502 55.0846L140.869 53.0752C140.79 52.8427 141.011 52.6268 141.217 52.7098L143.114 53.4073L144.742 52.1618C144.932 52.0123 145.185 52.1618 145.185 52.4109L145.137 54.52L146.766 55.7655C146.955 55.915 146.908 56.2139 146.687 56.2803L144.758 56.8948L144.142 58.9043C144.094 59.1201 143.81 59.17 143.683 58.9707Z" fill="white"/>
<path d="M182.287 59.718L181.133 57.9742H179.109C178.872 57.9742 178.746 57.6919 178.888 57.5093L180.105 55.832L179.473 53.8225C179.394 53.59 179.615 53.3741 179.821 53.4571L181.718 54.1546L183.346 52.9091C183.536 52.7596 183.789 52.9091 183.789 53.1582L183.741 55.2673L185.369 56.5128C185.559 56.6623 185.512 56.9612 185.29 57.0277L183.362 57.6421L182.745 59.6516C182.714 59.8841 182.413 59.9173 182.287 59.718Z" fill="white"/>
<path d="M157.073 96.0708L154.528 95.6224L153.057 97.8975L150.244 97.1835L149.374 100.106L146.165 99.442L145.043 102.049L141.849 101.933L141.897 100.671L144.284 100.754L145.454 98.0138L148.536 98.6449L149.422 95.6722L152.52 96.4527L153.974 94.244L156.33 94.6592L156.994 92.9985L158.1 93.4801L157.073 96.0708Z" fill="white"/>
<path d="M142.861 10.0962L142.086 12.6703L144.015 14.5303L142.956 17.3535L145.596 18.6655L144.521 21.9204L146.813 23.4483L146.26 26.7365L145.074 26.5206L145.485 24.0627L143.067 22.4519L144.094 19.3297L141.407 18.0012L142.592 14.879L140.695 13.0689L141.422 10.6775L139.937 9.74749L140.553 8.66803L142.861 10.0962Z" fill="white"/>
<path d="M77.8419 114.172L75.9765 114.77L74.7434 111.731L71.9138 112.263L70.6333 110.154L69.6216 110.834L71.3447 113.658L74.0005 113.159L75.2967 116.315L78.0948 115.401L77.8419 114.172Z" fill="white"/>
<path d="M35.4284 139.531L32.6461 141.308L35.5232 154.909C35.7761 156.089 37.0408 156.653 38.0209 156.022C38.6374 155.624 38.9378 154.86 38.7797 154.129L38.0683 150.94L40.977 149.08L43.3799 151.206C43.9332 151.688 44.7078 151.754 45.3243 151.356L45.3717 151.322C46.3518 150.691 46.4625 149.246 45.5772 148.466L35.4284 139.531ZM37.2937 147.719L36.7563 145.228L38.6216 146.872L37.2937 147.719Z" fill="white"/>
<path d="M172.264 18.7983L169.039 18.3831L163.301 30.938C162.811 32.0175 163.475 33.2962 164.613 33.4457C165.325 33.5287 166.02 33.1301 166.32 32.4493L167.648 29.4766L171.031 29.9084L171.679 33.1467C171.822 33.8775 172.407 34.4421 173.118 34.5251H173.181C174.319 34.6746 175.252 33.5952 175.015 32.4161L172.264 18.7983ZM168.929 26.4541L169.988 24.1457L170.494 26.6534L168.929 26.4541Z" fill="white"/>
<path d="M45.6089 96.4361C45.7512 96.0542 45.6722 94.6758 47.4585 93.2974C48.2015 92.7328 48.8022 92.2678 48.9603 91.6367C49.229 90.5406 48.1224 90.0424 47.0475 90.0756C46.4942 90.0922 46.02 89.6272 45.9883 89.046C45.9567 88.4481 46.3835 87.9333 46.9526 87.9001C47.5692 87.8503 48.3121 87.9001 49.0868 88.0994C51.4264 88.7305 52.1693 90.3579 51.79 91.919C51.4422 93.3306 50.383 94.0447 49.5294 94.6426C48.075 95.6556 48.1066 96.7516 47.9802 97.0672L45.6089 96.4361ZM44.534 98.894C44.7711 97.9141 45.5931 97.3661 46.5258 97.6152C47.4901 97.8643 47.9327 98.7445 47.7114 99.7409C47.4743 100.704 46.6681 101.269 45.7038 101.003C44.7553 100.754 44.2969 99.8572 44.534 98.894Z" fill="white"/>
<path d="M56.0423 122.941C56.7537 123.007 58.1448 123.306 59.4253 123.688C60.9903 124.153 61.9072 124.602 62.5869 125.366C63.2509 126.046 63.6145 127.026 63.3141 128.106C63.0296 129.169 62.1601 129.982 60.7532 130.099L60.7374 130.132C61.9388 130.896 62.6185 132.208 62.1917 133.752C61.8914 134.832 61.1958 135.546 60.3264 135.928C59.3146 136.376 57.8287 136.343 55.5681 135.662C54.3034 135.28 53.3865 134.915 52.8333 134.649L56.0423 122.941ZM57.3386 128.272L58.1764 128.521C59.5201 128.919 60.4054 128.554 60.6425 127.674C60.8954 126.777 60.358 126.096 59.204 125.748C58.6507 125.581 58.3187 125.515 58.0974 125.482L57.3386 128.272ZM55.9 133.553C56.1372 133.669 56.4533 133.752 56.8802 133.885C58.05 134.234 59.1882 134.084 59.5359 132.822C59.8679 131.626 58.9668 130.829 57.6864 130.447L56.8169 130.182L55.9 133.553Z" fill="white"/>
<path d="M34.0056 35.5381C34.6063 35.123 35.8868 34.4753 37.1198 33.9605C38.6374 33.3294 39.6175 33.0969 40.6134 33.263C41.5461 33.3792 42.384 33.9273 42.7792 34.9735C43.1586 36.0031 42.9531 37.1988 41.8939 38.1953L41.9097 38.2285C43.3008 38.0624 44.5971 38.6769 45.1662 40.1549C45.5614 41.2011 45.4192 42.2142 44.9449 43.0777C44.3916 44.0742 43.206 45.0041 41.0245 45.9175C39.8072 46.4324 38.8587 46.7147 38.2738 46.8641L34.0056 35.5381ZM38.1316 38.9426L38.9536 38.6104C40.2499 38.0624 40.7399 37.2155 40.4237 36.3519C40.0918 35.4717 39.2856 35.289 38.1632 35.754C37.6257 35.9699 37.3253 36.136 37.1356 36.2689L38.1316 38.9426ZM40.0602 44.0576C40.3131 43.9911 40.6135 43.8749 41.0403 43.6922C42.1627 43.2272 42.9847 42.3636 42.5262 41.1513C42.0836 39.9888 40.9138 39.939 39.6808 40.4538L38.8271 40.8026L40.0602 44.0576Z" fill="white"/>
<path d="M165.957 128.106C166.099 128.77 165.72 129.434 165.087 129.6C164.503 129.75 163.76 129.866 162.89 129.899C158.416 130.065 156.014 127.209 155.887 123.34C155.745 118.706 158.812 115.999 162.716 115.866C163.491 115.833 164.171 115.9 164.724 115.999C165.388 116.115 165.815 116.796 165.672 117.494L165.657 117.544C165.514 118.191 164.914 118.623 164.297 118.507C163.886 118.424 163.428 118.391 162.922 118.407C160.598 118.49 158.843 120.018 158.938 123.057C159.033 125.781 160.614 127.441 163.222 127.342C163.649 127.325 164.107 127.259 164.534 127.176C165.182 127.01 165.815 127.441 165.957 128.106Z" fill="white"/>
<path d="M28.2989 72.9372C28.204 73.6181 27.6033 74.0831 26.971 73.9834C26.3703 73.9004 25.6431 73.7177 24.8211 73.4188C20.6003 71.8411 19.3673 68.2706 20.6003 64.6171C22.0863 60.2494 25.8802 58.9209 29.5636 60.2992C30.2907 60.565 30.9073 60.8971 31.3973 61.196C31.9664 61.5614 32.1403 62.3751 31.7609 62.9564L31.7451 62.9896C31.3973 63.5376 30.6859 63.7037 30.1485 63.3549C29.8007 63.1224 29.3739 62.9066 28.8996 62.7239C26.7023 61.9101 24.5365 62.6574 23.5722 65.5139C22.7028 68.0879 23.6039 70.2303 26.0699 71.1602C26.481 71.3097 26.9236 71.426 27.3504 71.509C27.9669 71.6418 28.3937 72.2729 28.2989 72.9372Z" fill="white"/>
<path d="M165.83 82.9014C165.546 81.9216 166.099 80.8421 167.048 80.5598C168.028 80.2609 168.881 80.7923 169.229 81.8054C169.545 82.835 169.119 83.8314 168.107 84.1802C167.048 84.5289 166.131 83.9643 165.83 82.9014ZM165.609 79.9454L162.843 72.2895C162.621 71.6585 162.938 70.9444 163.554 70.7451L164.297 70.496C164.914 70.2967 165.562 70.662 165.736 71.3097L167.759 79.2313L165.609 79.9454Z" fill="white"/>
<path d="M102.598 92.2511C102.771 92.3176 100.4 95.5227 98.0922 97.7979C96.2268 100.256 94.4879 103.145 93.8872 106.317C92.9703 111.133 93.7291 134.881 92.9387 136.575C86.1254 143.583 81.1774 161.154 79.7863 166.518C79.5175 167.564 78.9642 168.511 78.2054 169.241L78.5058 175.303L81.8888 178.574C81.8888 178.574 81.13 173.642 82.6476 169.972C82.6476 169.972 99.8153 142.653 100.843 140.561C102.787 134.616 109.885 104.142 109.885 104.142L111.529 97.1336C111.545 97.1502 102.613 92.2678 102.598 92.2511Z" fill="#F7A491"/>
<path d="M74.5063 171.184C74.5063 171.184 76.6563 174.655 76.8302 176.017C77.0199 177.362 78.158 180.434 79.4227 180.634C79.7072 180.684 84.6236 181.049 84.592 180.418C84.5604 179.92 82.7899 179.222 81.952 178.624C80.5293 177.595 78.3161 169.158 78.3161 169.158C78.3161 169.158 74.6012 170.105 74.5063 171.184Z" fill="#FF61A4"/>
<path d="M117.283 102.78C117.283 102.78 128.349 127.624 128.412 131.992C128.476 135.728 126.484 156.736 127.037 174.24C127.053 174.871 127.812 175.718 128.934 176.249C129.551 176.548 132.57 177.96 132.57 177.96L132.981 179.089L122.611 178.309L122.468 175.336C122.468 175.336 118.343 149.163 118.754 141.773C118.817 140.611 119.354 133.652 119.354 133.652L106.882 108.36L114.722 97.5322L117.283 102.78Z" fill="#F7A491"/>
<path d="M81.4462 47.8938C81.3672 45.1038 82.4263 40.6697 85.6512 36.5678L86.0148 36.8833C82.869 40.8856 81.8414 45.1869 81.9205 47.8772L81.4462 47.8938Z" fill="#FFC359"/>
<path d="M81.5726 47.2461C82.5053 47.3292 82.0311 48.392 81.9204 48.6411C82.4579 49.3884 82.1259 52.9091 81.9678 53.1582C81.5094 53.4073 81.5252 52.66 81.5252 52.66C81.3039 53.5236 80.9877 52.66 80.9087 52.7763C80.6241 53.3907 80.3712 52.5106 80.3712 52.5106C79.8337 53.4239 79.9128 52.3611 79.9128 52.3611C80.1815 49.2058 81.051 48.392 81.051 48.392C80.8929 47.6613 81.0035 47.3126 81.4778 47.2461C81.5252 47.2461 81.541 47.2461 81.5726 47.2461Z" fill="#FFC359"/>
<path d="M97.1596 51.4643C94.3931 53.3243 85.4615 54.8023 85.4615 54.8023C88.9709 42.9781 84.592 36.5014 84.592 36.5014C92.5436 36.2855 100.637 33.4955 105.649 30.7055C103.42 43.2771 106.17 45.2035 106.17 45.2035C101.396 48.5415 97.1596 51.4643 97.1596 51.4643Z" fill="#013D5D"/>
<path d="M118.311 47.0302C116.635 42.347 112.256 39.5072 107.704 40.3708C106.297 37.996 103.973 36.2357 101.428 35.671C96.4165 34.5417 89.6506 36.6176 89.8403 42.1976C87.8959 45.9341 87.8169 51.2816 90.7888 54.138C89.7613 59.1699 94.235 64.0358 100.068 63.8531C102.092 67.3738 105.965 69.6324 109.806 69.1508C110.723 69.0345 112.13 68.7854 112.367 68.8518C112.067 68.802 118.548 74 124.034 65.9954C129.645 57.7916 125.709 47.8938 118.311 47.0302Z" fill="#FE544E"/>
<path d="M117.647 18.8979C117.916 18.2336 118.248 17.586 118.643 16.9881L119.07 16.3238C119.117 16.2076 119.165 16.1079 119.18 16.0415C119.37 15.4603 118.422 11.7403 118.422 11.7403L115.434 14.5303L115.592 15.9751C114.754 15.5599 114.027 12.2551 113.695 13.1021C112.683 15.7592 113.316 16.7058 113.695 19.7449C113.821 20.7745 111.687 36.6674 111.055 39.8228C110.423 42.9781 106.139 51.7964 106.139 51.7964L109.569 56.3634C109.569 56.3634 116.335 43.576 116.746 39.474C116.793 39.0422 116.841 38.3946 116.888 37.5974L117.647 18.8979Z" fill="#F7A491"/>
<path d="M112.272 43.2438C110.549 42.6626 110.786 39.5571 110.786 39.5571C112.035 30.0246 113.237 21.389 113.237 21.389C114.359 20.7247 118.216 21.9702 118.216 21.9702C117.536 33.5952 117.268 40.0553 117.015 40.8358C116.746 41.6163 115.197 44.2403 112.272 43.2438Z" fill="#013D5D"/>
<path d="M91.5634 68.6692L86.9158 64.534C86.9158 64.534 83.1535 71.127 80.1341 76.5077C77.1463 75.3784 69.4161 70.0808 69.0367 69.8317C68.6573 69.5826 67.8037 63.604 67.1556 63.9196C66.5074 64.2351 67.6614 67.0749 66.871 67.2908C66.0806 67.5067 60.1209 63.3217 59.9944 63.8864C59.7731 64.9326 63.5513 66.5933 63.3616 67.0583C63.1719 67.5233 59.5518 64.9326 58.9827 65.5803C58.4136 66.2279 62.6186 67.6894 62.6344 68.1212C62.6502 68.5529 58.5085 67.324 58.6191 68.2208C58.6824 68.719 62.3182 69.2172 62.0969 69.7486C61.8598 70.2801 59.0301 70.3631 59.1408 70.9277C59.2673 71.4924 61.512 70.5126 62.8873 71.1436C64.2627 71.7747 65.5589 71.4591 67.4717 73.1697C69.3845 74.8636 78.822 84.5621 81.7623 83.7318C84.3233 82.9844 91.5634 68.6692 91.5634 68.6692Z" fill="#F7A491"/>
<path d="M108.004 61.5614C108.304 59.6516 111.545 56.7952 117.015 40.8358C117.015 40.8358 113.442 39.2249 110.802 39.5571C110.802 39.5571 101.839 56.8118 99.8153 57.0111C97.7919 57.227 90.6782 57.5425 89.4293 58.3396C88.1805 59.1368 79.6757 76.2918 79.6757 76.2918C79.6757 76.2918 79.976 85.3427 81.4304 84.6452C84.4497 83.1837 90.5833 70.662 90.9785 70.197C91.2631 71.1769 95.7052 86.256 95.6894 89.6771L95.721 89.7103C99.8628 93.2476 105.901 92.4172 109.111 87.9001C109.111 87.9001 108.383 83.2336 109.269 78.9988C110.77 71.8744 112.699 69.7819 108.004 61.5614Z" fill="#013D5D"/>
<path d="M131.906 135.413C131.906 135.413 127.464 114.189 124.935 104.989C122.405 95.7885 110.565 67.3738 110.565 67.3738C107.577 62.4914 90.9628 70.114 90.9628 70.2136C92.0061 86.8207 90.9312 97.7813 90.2198 106.018C89.4136 115.368 84.3075 135.928 84.5763 136.99C99.025 135.147 127.812 139.93 131.906 135.413Z" fill="#013D5D"/>
<path d="M117.6 16.4235C117.6 16.4235 117.22 17.5527 116.177 17.1708C115.055 16.7556 114.375 16.1909 114.375 16.1909C114.375 16.1909 114.944 17.5693 115.956 17.9513C117.932 18.682 117.6 16.4235 117.6 16.4235Z" fill="#F47458"/>
<path d="M115.482 1.24466C115.924 8.03693 118.011 17.5362 121.536 26.122C122.011 27.8159 117.584 29.1943 117.11 27.5004C116.541 21.1565 114.106 10.2457 110.471 2.62305C109.917 0.447531 114.944 -0.93086 115.482 1.24466Z" fill="#DB9540"/>
<path d="M119.497 24.7104C118.864 20.376 115.671 5.81158 114.454 0.264834C112.857 -0.21677 110.043 0.978948 110.454 2.62304C114.106 10.2457 116.525 21.1565 117.094 27.5004C117.315 25.7068 118.39 24.9097 119.497 24.7104Z" fill="#F7B455"/>
<path d="M118.785 26.4707C118.864 25.0757 121.078 24.8598 121.489 26.1386C121.172 24.5775 119.212 18.8149 117.726 13.3013C116.24 7.80442 115.639 2.22447 115.481 1.02877C115.149 0.165201 114.027 -0.100511 112.62 0.0323447C112.762 0.381092 118.785 26.4707 118.785 26.4707Z" fill="#FFC359"/>
<path d="M113.695 11.8067C114.533 13.484 115.671 18.8315 115.671 18.8315C117.868 18.8315 119.149 17.7022 119.149 17.7022C118.042 14.5801 117.315 11.3251 117.22 10.6276C115.94 10.2291 114.422 10.5778 113.695 11.8067Z" fill="#FF61A4"/>
<path d="M96.1478 51.5308C96.1478 51.5308 96.9066 55.8486 96.7644 57.5591C96.6063 59.2696 101.855 68.9515 102.313 68.7522C102.771 68.5695 101.712 58.4891 100.954 56.1143C100.432 54.5034 100.574 49.2722 100.574 49.2722L96.1478 51.5308Z" fill="#F7A491"/>
<path d="M100.637 51.8629C100.59 50.4513 100.574 49.2722 100.574 49.2722L96.1478 51.5308C96.1478 51.5308 96.3059 52.4109 96.464 53.5402C98.3926 53.972 99.7995 53.1748 100.637 51.8629Z" fill="#F47458"/>
<path d="M94.5354 39.6069C94.5354 39.6069 92.8281 40.6365 92.2116 42.8785C91.595 45.1204 92.2906 50.8997 96.7011 52.2947C101.096 53.6896 103.009 49.1061 102.107 45.5356C101.191 41.9651 99.2146 37.4314 94.5354 39.6069Z" fill="#F7A491"/>
<path d="M102.645 44.1572C102.566 45.1204 102.076 45.8511 101.554 45.8013C101.048 45.7515 100.701 44.9212 100.78 43.9579C100.859 42.9947 101.349 42.264 101.855 42.3139C102.392 42.3637 102.724 43.194 102.645 44.1572Z" fill="#F7A491"/>
<path d="M93.4763 47.8606C93.998 48.7075 93.998 49.6873 93.4763 50.0693C92.9546 50.4513 92.1168 50.0859 91.5951 49.239C91.0734 48.392 91.0734 47.4122 91.5951 47.0302C92.1168 46.6483 92.9546 47.0136 93.4763 47.8606Z" fill="#F7A491"/>
<path d="M118.074 11.2753C117.22 11.1092 114.248 13.9822 114.28 14.4306C114.311 14.8956 117.204 13.0855 117.299 13.3844C117.378 13.6169 113.979 14.6465 114.201 15.0617C114.343 15.344 117.315 14.6465 117.41 14.8292C117.568 15.1281 115.039 15.1613 115.228 15.4769C115.465 15.8422 118.896 16.1744 118.896 16.1744C118.896 16.1744 118.437 14.7628 118.501 14.3808C118.532 14.2147 118.532 13.9822 118.516 13.7331C118.501 13.5172 118.595 13.3346 118.564 13.1021C118.469 12.1389 118.548 11.3749 118.074 11.2753Z" fill="#F7A491"/>
<path d="M115.355 12.554L114.153 14.1317L113.695 13.484C113.695 13.484 113.679 13.2847 113.758 13.0356C113.806 12.8862 115.197 12.0392 115.355 12.554Z" fill="#F7A491"/>
<path d="M122.563 180.385H135.668C136.158 180.335 136.269 179.936 136.095 179.671C135.747 179.156 134.214 178.774 132.507 177.943C129.487 178.276 122.927 176.117 122.453 175.386C122.184 176.831 122.295 180.318 122.563 180.385Z" fill="#FF61A4"/>
<path d="M113.727 14.8292C113.679 14.4638 114.343 14.8458 115.339 16.6726C116.082 18.0011 115.339 20.7247 115.339 20.7247L113.584 15.8256L113.727 14.8292Z" fill="#F7A491"/>
<path d="M79.6599 76.2918C75.6288 73.7011 69.8904 70.1472 69.4636 69.9811C69.0368 69.815 66.9817 73.4852 67.2505 73.8173C67.5192 74.1495 80.3239 85.6415 81.4304 84.6451C82.537 83.6653 79.6599 76.2918 79.6599 76.2918Z" fill="#013D5D"/>
<path d="M96.8434 58.24C97.5389 60.9967 101.886 68.9183 102.313 68.7522C102.724 68.5861 101.918 60.4653 101.191 57.0775C100.606 57.9743 98.851 58.788 96.8434 58.24Z" fill="white"/>
<path d="M96.7012 55.5994C95.0887 57.0775 94.5987 59.0205 93.5237 65.3478C92.7333 70.0309 91.7216 99.3257 87.7379 106.018C94.1086 110.369 100.637 108.36 100.637 108.36C98.4243 84.4292 97.1596 57.8248 96.7012 55.5994Z" fill="#FFC359"/>
<path d="M100.748 55.068C105.396 58.1237 114.359 82.2537 124.555 79.9121C125.029 84.0971 119.228 92.2678 119.228 92.2678C106.866 81.7555 101.206 57.0941 101.206 57.0941C100.875 56.3136 100.748 55.068 100.748 55.068Z" fill="#FFC359"/>
</svg>
